PathFileType	4	(X/Y/Z)	s02c0302.trc
DataRate	CameraRate	NumFrames	NumMarkers	Units	OrigDataRate	OrigDataStartFrame	OrigNumFrames
200	200	4	51	mm	200	0	2000
Frame#	Time	racr			lacr			c7			jug			rlel			rdr			llel			ldr			s2			lic			ric			lasi			rasi			rpsi			lpsi			rgt			lgt			rth1			rth2			rth3			rth4			rlfc			rmfc			rsh1			rsh2			rsh3			rsh4			rlmal			rmmal			rcal			rtoe			rmt5			rmt1			lth1			lth2			lth4			lth3			llfc			lmfc			lsh1			lsh2			lsh3			lsh4			llmal			lmmal			lcal			ltoe			lmt5			SBIKE			LBIKE			RBIKE			
		X1	Y1	Z1	X2	Y2	Z2	X3	Y3	Z3	X4	Y4	Z4	X5	Y5	Z5	X6	Y6	Z6	X7	Y7	Z7	X8	Y8	Z8	X9	Y9	Z9	X10	Y10	Z10	X11	Y11	Z11	X12	Y12	Z12	X13	Y13	Z13	X14	Y14	Z14	X15	Y15	Z15	X16	Y16	Z16	X17	Y17	Z17	X18	Y18	Z18	X19	Y19	Z19	X20	Y20	Z20	X21	Y21	Z21	X22	Y22	Z22	X23	Y23	Z23	X24	Y24	Z24	X25	Y25	Z25	X26	Y26	Z26	X27	Y27	Z27	X28	Y28	Z28	X29	Y29	Z29	X30	Y30	Z30	X31	Y31	Z31	X32	Y32	Z32	X33	Y33	Z33	X34	Y34	Z34	X35	Y35	Z35	X36	Y36	Z36	X37	Y37	Z37	X38	Y38	Z38	X39	Y39	Z39	X40	Y40	Z40	X41	Y41	Z41	X42	Y42	Z42	X43	Y43	Z43	X44	Y44	Z44	X45	Y45	Z45	X46	Y46	Z46	X47	Y47	Z47	X48	Y48	Z48	X49	Y49	Z49	X50	Y50	Z50	X51	Y51	Z51	
0	0.0000	488.418462	1277.706226	-142.872886	495.153448	1275.044063	-487.965503	517.899057	1295.238448	-320.246351	0.000000	0.000000	-0.000000	607.180557	1036.670699	-123.697113	734.578303	844.762976	-141.788391	578.736861	1018.480526	-541.614609	721.768599	837.414136	-487.270535	-4.967076	1117.932495	-336.369915	137.647891	1089.274152	-467.519091	118.364676	1106.586748	-183.922606	180.789922	1052.418230	-440.122415	169.227064	1083.625281	-213.191922	11.263558	1145.588409	-293.084146	27.578759	1147.274009	-380.799872	85.053375	1045.214070	-139.811259	77.456675	1002.659759	-503.115255	174.463479	1017.284676	-136.740417	261.648589	1005.918329	-144.929897	333.396851	965.059502	-120.409517	271.475043	1027.804201	-174.614904	453.939942	876.017032	-153.445205	449.488881	854.652652	-264.737399	443.065872	763.542712	-135.885482	433.642804	675.178106	-155.373939	388.785549	602.500006	-149.115242	447.053197	672.584487	-190.517398	340.524409	493.681288	-155.244390	348.605377	513.984665	-234.539092	265.079899	447.748722	-197.916921	549.598352	426.813477	-194.434359	440.654459	414.519172	-136.926270	467.775533	427.384040	-244.106761	183.416539	907.099290	-518.367115	254.519658	856.813253	-514.905071	279.166792	877.575097	-497.043030	289.612476	775.219827	-514.281306	346.727324	691.353526	-490.150035	348.270596	663.278240	-386.198923	297.370760	599.841703	-507.730971	264.657445	521.396485	-490.229852	194.085295	465.426020	-493.059747	281.494209	513.252685	-454.413856	119.492324	395.354176	-475.191727	134.487742	383.327173	-399.050659	41.926162	390.917737	-434.739552	250.548660	195.031041	-443.935571	154.411631	246.385002	-502.991127	-129.559687	869.336095	-314.424529	32.471902	82.180747	-515.390722	33.287231	81.356010	-115.228912	
1	0.0050	488.474678	1277.745846	-142.950545	495.188042	1275.095511	-487.930304	517.890977	1295.245713	-320.296209	0.000000	0.000000	-0.000000	607.316589	1036.745802	-123.679340	734.594258	844.772147	-141.772240	578.798854	1018.545947	-541.644235	721.776444	837.409894	-487.266969	-5.087153	1118.044105	-336.308406	137.491621	1089.345969	-467.585890	118.388440	1106.554320	-183.946182	180.704297	1052.429795	-440.283402	169.212133	1083.580935	-213.253074	11.221373	1145.689568	-292.974238	27.485377	1147.342080	-380.690712	85.032277	1045.205222	-139.789552	77.320306	1002.858761	-503.169313	174.438218	1017.334775	-136.770335	261.616198	1005.970441	-144.995606	333.353936	965.128502	-120.491771	271.421572	1027.865601	-174.686575	453.907098	876.087923	-153.527475	449.395248	854.705904	-264.812466	442.977490	763.665137	-135.944013	433.536126	675.245298	-155.403456	388.641226	602.579315	-149.183847	446.938854	672.663014	-190.584726	340.369649	493.767592	-155.265853	348.434027	514.074408	-234.579493	264.935466	447.847792	-197.876524	549.488497	427.001295	-194.468601	440.538160	414.659802	-136.947202	467.668529	427.536092	-244.112371	183.411724	907.347031	-518.360063	254.562028	857.209622	-514.897091	279.153672	877.960083	-496.988700	289.734570	775.610291	-514.278728	346.843303	691.651610	-490.208568	348.442332	663.444022	-386.219169	297.617144	600.076354	-507.798689	266.345854	522.519821	-489.981590	194.507238	465.514252	-493.134122	281.893644	513.448729	-454.463921	120.012574	395.300578	-475.303442	135.098680	383.258996	-399.122113	42.530619	391.058364	-434.778641	250.582612	194.636277	-443.955701	154.566436	246.183705	-503.007534	-129.563804	869.324922	-314.424976	32.452121	82.228796	-515.428371	32.979170	81.576977	-115.382021	
2	0.0100	488.516381	1277.786405	-143.046797	495.211043	1275.143803	-487.921646	517.864625	1295.263820	-320.348528	0.000000	0.000000	-0.000000	607.410247	1036.809689	-123.717083	734.615384	844.786249	-141.764784	578.860955	1018.585728	-541.688720	721.794463	837.428352	-487.292621	-5.162688	1118.042016	-336.210009	137.394455	1089.403017	-467.581072	118.385703	1106.518178	-183.947283	180.631108	1052.454730	-440.365234	169.180275	1083.559640	-213.316634	11.170364	1145.844670	-292.822806	27.388504	1147.391621	-380.578708	84.989584	1045.192351	-139.753011	77.233527	1003.032187	-503.202085	174.389172	1017.398052	-136.815113	261.562664	1006.020453	-145.064126	333.321308	965.215649	-120.550246	271.360767	1027.929705	-174.756035	453.860292	876.184093	-153.601425	449.320573	854.771355	-264.860036	442.903265	763.793008	-135.979455	433.476611	675.363164	-155.445492	388.566699	602.678261	-149.218642	446.864835	672.715637	-190.640586	340.289923	493.842078	-155.291663	348.363225	514.152756	-234.610529	264.879566	447.909298	-197.896366	549.414136	427.121442	-194.465093	440.467618	414.781723	-136.943240	467.662166	427.846748	-244.285268	183.453288	907.693305	-518.307577	254.107514	858.321659	-514.449834	278.996689	878.646282	-496.519441	289.856686	775.992469	-514.260087	346.940556	691.909921	-490.278892	349.007123	663.547462	-386.563788	297.837303	600.224262	-507.853495	265.288544	521.709268	-490.368195	194.866681	465.589222	-493.171224	282.216666	513.597925	-454.553791	120.465162	395.272484	-475.377040	135.538617	383.199652	-399.177841	42.995888	391.181103	-434.793152	250.599931	194.295721	-443.973000	154.699933	246.047329	-503.006693	-129.572070	869.321770	-314.429544	32.449774	82.223613	-515.432273	32.988966	81.560261	-115.393633	
3	0.0150	488.530117	1277.812197	-143.114094	495.220890	1275.182666	-487.916391	517.820468	1295.272172	-320.385495	0.000000	0.000000	-0.000000	607.025405	1037.314494	-122.954561	734.648409	844.789973	-141.757538	579.048939	1018.720707	-541.420864	721.872666	837.360494	-487.276696	-4.438256	1116.244460	-336.375361	137.323678	1089.297765	-467.641548	117.929887	1105.965716	-185.144231	180.566319	1052.473670	-440.434455	169.141219	1083.534494	-213.359526	9.365947	1146.429230	-292.855435	29.646393	1145.885711	-382.256529	84.972516	1045.186807	-139.716033	77.173191	1003.160672	-503.222810	174.347843	1017.459868	-136.845108	261.522093	1006.085287	-145.126802	333.285732	965.318135	-120.627831	271.487995	1028.000405	-174.810652	453.827103	876.304278	-153.664961	449.271715	854.855003	-264.928032	443.508389	763.277387	-136.943489	432.128349	674.905197	-156.148050	388.545365	602.771038	-149.246694	448.181883	673.975866	-191.800944	339.766923	494.701549	-154.751700	348.444186	513.982658	-234.902587	264.882497	447.989013	-197.910319	549.408065	427.175247	-194.475524	440.443491	414.859150	-136.939212	467.646217	427.896929	-244.287720	183.519419	907.957395	-518.244265	254.427627	858.189723	-514.390078	279.111701	878.850218	-496.424439	289.957845	776.240078	-514.289946	347.203598	691.897142	-490.452962	348.788370	663.751520	-386.275930	298.012598	600.365738	-507.925328	265.764195	521.817288	-490.891136	195.057621	465.785195	-493.286789	282.449973	513.718003	-454.615498	120.902822	395.212771	-475.465187	135.861665	383.174562	-399.221236	43.093832	391.604756	-434.602910	250.622352	194.036087	-443.970100	154.774927	245.863437	-503.116650	-129.570129	869.341668	-314.472337	32.441120	82.235377	-515.415326	33.290711	81.371150	-115.235688	
